<?xml version="1.0" encoding="utf-8"?>
<!DOCTYPE svg PUBLIC "-//W3C//DTD SVG 1.1//EN" "http://www.w3.org/Graphics/SVG/1.1/DTD/svg11.dtd">
<svg version="1.1" xmlns="http://www.w3.org/2000/svg" xmlns:xlink="http://www.w3.org/1999/xlink" x="0px" y="0px" viewBox="0 0 1000 1000" enable-background="new 0 0 1000 1000" xml:space="preserve">
<g><path fill="#ffffff" d="M443.2,539.7c-146,0-264.9-118.8-264.9-264.9c0-146,118.8-264.8,264.9-264.8C589.2,10,708,128.8,708,274.8C708,420.9,589.2,539.7,443.2,539.7z M443.2,69c-113.5,0-205.8,92.3-205.8,205.8c0,113.5,92.3,205.8,205.8,205.8c113.5,0,205.8-92.3,205.8-205.8C649,161.4,556.7,69,443.2,69z"/><path fill="#ffffff" d="M182.9,986.1c-20.2,0-78-3.2-113.6-36.4C28.8,912,30.6,849.9,32.1,831.7c15.2-181.5,201.6-334.8,407-334.8c84.3,0,165.5,25.2,234.7,72.7c9.3,6.4,18.4,13.2,27.2,20.3c12.6,10.3,14.5,28.9,4.3,41.5c-10.3,12.6-28.9,14.5-41.5,4.3c-7.5-6.1-15.4-12-23.3-17.5c-59.4-40.8-129-62.4-201.3-62.4c-176,0-335.4,128.6-348.2,280.7c-2,24.3,2.9,55.4,18.6,69.9c20.1,18.8,64.8,21.1,78.7,20.4l489.7,0c16.3,0,29.5,13.2,29.5,29.5S694.2,986,677.9,986H189.6C188.7,986.1,186.3,986.1,182.9,986.1z"/><path fill="#ffffff" d="M804.3,959.6c0,12.7-10.3,23.1-23.1,23.1l0,0c-12.7,0-23.1-10.3-23.1-23.1V645.9c0-12.7,10.3-23.1,23.1-23.1l0,0c12.7,0,23.1,10.3,23.1,23.1V959.6z"/><path fill="#ffffff" d="M781.2,990c-16.8,0-30.4-13.7-30.4-30.4V645.9c0-16.8,13.7-30.4,30.4-30.4c16.8,0,30.4,13.7,30.4,30.4v313.7C811.7,976.3,798,990,781.2,990z M781.2,630.2c-8.7,0-15.7,7-15.7,15.7v313.7c0,8.6,7,15.7,15.7,15.7c8.6,0,15.7-7,15.7-15.7V645.9C796.9,637.2,789.9,630.2,781.2,630.2z"/><path fill="#ffffff" d="M938.1,779.7c12.7,0,23.1,10.3,23.1,23.1l0,0c0,12.7-10.3,23.1-23.1,23.1H624.4c-12.7,0-23.1-10.3-23.1-23.1l0,0c0-12.7,10.3-23.1,23.1-23.1H938.1z"/><path fill="#ffffff" d="M938.1,833.2H624.4c-16.8,0-30.4-13.7-30.4-30.4c0-16.8,13.7-30.4,30.4-30.4h313.7c16.8,0,30.4,13.7,30.4,30.4C968.5,819.5,954.9,833.2,938.1,833.2z M624.4,787c-8.6,0-15.7,7-15.7,15.7c0,8.6,7,15.7,15.7,15.7h313.7c8.6,0,15.7-7,15.7-15.7c0-8.7-7-15.7-15.7-15.7H624.4z"/></g>
</svg>